<svg width="8" height="15" viewBox="0 0 8 15" fill="none" xmlns="http://www.w3.org/2000/svg">
<path d="M0.697038 1.16437L6.46052 7.02034C6.58692 7.14811 6.65782 7.32059 6.65782 7.50032C6.65782 7.68005 6.58692 7.85253 6.46052 7.9803L0.698287 13.8363C0.571949 13.9648 0.501157 14.1379 0.501157 14.3181C0.501157 14.4984 0.571949 14.6714 0.698287 14.8C0.760006 14.8633 0.833772 14.9136 0.915239 14.9479C0.996706 14.9823 1.08423 15 1.17264 15C1.26105 15 1.34857 14.9823 1.43004 14.9479C1.51151 14.9136 1.58527 14.8633 1.64699 14.8L7.40922 8.94525C7.78786 8.55962 8 8.04077 8 7.50032C8 6.95987 7.78786 6.44102 7.40922 6.05539L1.64699 0.200667C1.58526 0.137167 1.51141 0.0866917 1.42983 0.0522249C1.34825 0.0177581 1.26058 -2.94589e-07 1.17202 -2.98461e-07C1.08345 -3.02332e-07 0.995786 0.0177581 0.914203 0.0522249C0.83262 0.0866917 0.758776 0.137167 0.697038 0.200666C0.570699 0.32923 0.499907 0.502269 0.499907 0.682519C0.499907 0.862768 0.570699 1.03581 0.697038 1.16437Z" fill="white"/>
</svg>
